<svg width="24" height="24" viewBox="0 0 24 24" fill="none" xmlns="http://www.w3.org/2000/svg">
<path d="M8.78125 5.8457C9.50184 5.74719 10.2113 6.12468 10.498 6.76074C10.5857 6.93492 10.6382 7.12429 10.6533 7.32129L11.042 12.8096C11.0473 12.8847 11.0825 12.9555 11.1406 13.0049C11.1842 13.0418 11.2381 13.0645 11.2979 13.0713L11.3604 13.0723L16.9336 12.7373C17.3861 12.7107 17.8303 12.8677 18.1602 13.1719C18.4899 13.4762 18.6773 13.9009 18.6748 14.3916C18.4268 18.0039 15.773 21.0238 12.1592 21.8066C8.54528 22.5894 4.83596 20.9476 3.05762 17.7852C2.58217 16.97 2.26226 16.0776 2.11426 15.1748L2.06641 14.8359C2.02534 14.5824 2.00322 14.326 2 14.0801L2.00293 13.8379C2.01321 10.0663 4.66142 6.80466 8.3877 5.9248L8.64355 5.86816L8.78125 5.8457ZM8.93262 7.28809L8.7041 7.33984C5.73578 8.05529 3.60662 10.6105 3.48828 13.6211L3.48242 13.8662C3.47533 14.0526 3.48241 14.24 3.50488 14.4385L3.5332 14.6406C3.63258 15.4947 3.90849 16.3206 4.34961 17.0771C5.81679 19.686 8.86673 21.0372 11.8389 20.3936C14.8111 19.7498 16.9939 17.2655 17.1963 14.3418C17.1964 14.2979 17.1771 14.2558 17.1445 14.2256C17.1227 14.2055 17.0958 14.1917 17.0674 14.1855L17.0244 14.1816L11.459 14.5176C10.9894 14.5509 10.5253 14.3996 10.1699 14.0977C9.81453 13.7956 9.59712 13.3669 9.56543 12.9102L9.17676 7.42676C9.17606 7.4177 9.17415 7.40808 9.15723 7.37305C9.13192 7.31709 9.07657 7.28156 9.0166 7.27832L8.93262 7.28809ZM13.4229 2.00098C17.7083 2.12221 21.3026 5.20164 21.9902 9.34082L22 9.45703L21.998 9.6582C21.974 9.95586 21.8536 10.2393 21.6543 10.4668C21.404 10.7524 21.0471 10.9289 20.6582 10.957L14.0127 11.3896C13.1612 11.4374 12.4295 10.805 12.374 9.97363L11.9297 3.44922L11.9346 3.30273L11.957 3.13867C12.0163 2.84667 12.1685 2.57892 12.3926 2.37598C12.6739 2.12136 13.0475 1.98659 13.4229 2.00098ZM13.8506 9.87793C13.8532 9.91678 13.8877 9.94683 13.9209 9.94531L20.5176 9.51367L20.4854 9.33398C19.8317 6.08079 17.0119 3.66422 13.6289 3.45898L13.4111 3.44922L13.8506 9.87793Z" fill="#0962E8"/>
</svg>
