<svg width="24" height="24" viewBox="0 0 24 24" fill="none" xmlns="http://www.w3.org/2000/svg">
<path d="M14.4971 2.81348C14.8983 2.81362 15.2236 3.13804 15.2236 3.53809C15.2236 3.90474 14.9503 4.20777 14.5957 4.25586L14.4971 4.2627H7.4541C5.0756 4.26278 3.54597 5.83285 3.45801 8.28223L3.45312 8.50684V16.3154C3.45329 18.8292 4.8911 20.4535 7.23828 20.5469L7.4541 20.5508H15.792C18.1725 20.5507 19.7002 18.9868 19.7881 16.54L19.793 16.3154V9.51562C19.793 9.11549 20.1182 8.79102 20.5195 8.79102C20.8873 8.79112 21.1911 9.06345 21.2393 9.41699L21.2461 9.51562V16.3154C21.2459 19.5903 19.1717 21.8909 16.0186 21.9961L15.792 22H7.4541C4.22681 21.9999 2.10106 19.7874 2.00391 16.5479L2 16.3154V8.50684C2.00021 5.2304 4.07558 2.92294 7.22754 2.81738L7.4541 2.81348H14.4971ZM15.5273 9.54004C15.7731 9.22386 16.2296 9.16638 16.5469 9.41113C16.8352 9.63385 16.9097 10.0301 16.7363 10.3379L16.6768 10.4277L13.8389 14.0791C13.6143 14.368 13.2134 14.4413 12.9043 14.2656L12.8154 14.2051L10.083 12.0664L7.63086 15.2451C7.40837 15.533 7.01139 15.6083 6.70215 15.4365L6.6123 15.377C6.32319 15.1552 6.24755 14.7596 6.41992 14.4512L6.47949 14.3613L9.37988 10.6035C9.60397 10.3132 10.0046 10.2391 10.3145 10.415L10.4043 10.4756L13.1367 12.6152L15.5273 9.54004ZM19.4111 2C20.8409 2.00028 21.9998 3.15572 22 4.58105C22 6.00654 20.841 7.1628 19.4111 7.16309C17.9811 7.16309 16.8213 6.00671 16.8213 4.58105C16.8215 3.15555 17.9812 2 19.4111 2ZM19.4111 3.44922C18.7839 3.44922 18.2746 3.95582 18.2744 4.58105C18.2744 5.20644 18.7838 5.71387 19.4111 5.71387C20.0382 5.71359 20.5469 5.20626 20.5469 4.58105C20.5467 3.95599 20.0381 3.4495 19.4111 3.44922Z" fill="#0962E8"/>
</svg>
