<svg width="24" height="24" viewBox="0 0 24 24" fill="none" xmlns="http://www.w3.org/2000/svg">
<path d="M18.0508 13.6279C20.2316 13.6282 21.9997 15.3901 22 17.5635C22 19.7371 20.2318 21.4998 18.0508 21.5C15.8697 21.4999 14.1016 19.7372 14.1016 17.5635C14.1018 15.39 15.8698 13.6281 18.0508 13.6279ZM18.0508 15.1357C16.7052 15.1359 15.6145 16.2225 15.6143 17.5635C15.6143 18.9047 16.705 19.9921 18.0508 19.9922C19.3964 19.9919 20.4883 18.9046 20.4883 17.5635C20.488 16.2226 19.3963 15.136 18.0508 15.1357ZM10.4346 16.8105C10.8523 16.8105 11.1914 17.1482 11.1914 17.5645C11.1912 17.9458 10.9061 18.2607 10.5371 18.3105L10.4346 18.3174H2.75684C2.33932 18.3174 2.00026 17.9805 2 17.5645C2 17.1829 2.28516 16.8673 2.6543 16.8174L2.75684 16.8105H10.4346ZM5.94922 2.5C8.13029 2.5 9.89844 4.26358 9.89844 6.4375C9.89824 8.61036 8.12996 10.373 5.94922 10.373C3.76858 10.3729 2.00019 8.61028 2 6.4375C2 4.26365 3.76825 2.50012 5.94922 2.5ZM5.94922 4.00781C4.60377 4.00794 3.5127 5.09601 3.5127 6.4375C3.51289 7.77784 4.60403 8.86609 5.94922 8.86621C7.29452 8.86621 8.38652 7.77792 8.38672 6.4375C8.38672 5.09593 7.29477 4.00781 5.94922 4.00781ZM21.2432 5.68359C21.6608 5.68359 22 6.02124 22 6.4375C21.9998 6.81891 21.7147 7.1337 21.3457 7.18359L21.2432 7.19043H13.5654C13.1479 7.19043 12.8088 6.8536 12.8086 6.4375C12.8086 6.05593 13.0938 5.74034 13.4629 5.69043L13.5654 5.68359H21.2432Z" fill="#0962E8"/>
</svg>
