<svg width="24" height="24" viewBox="0 0 24 24" fill="none" xmlns="http://www.w3.org/2000/svg">
<path d="M12.6162 2C13.325 1.99974 14.0039 2.28044 14.498 2.77832C14.9923 3.27642 15.2598 3.95015 15.2383 4.57812L15.2471 4.72559C15.2644 4.87093 15.3123 5.01132 15.3906 5.14062C15.5433 5.39575 15.7938 5.58095 16.0859 5.65527C16.378 5.7295 16.6886 5.68699 16.9824 5.51855L17.1455 5.43555C18.3755 4.86902 19.851 5.3194 20.5332 6.47949L21.1465 7.52148C21.1626 7.54891 21.1772 7.57738 21.1895 7.60645L21.2461 7.71875C21.7943 8.86542 21.404 10.2289 20.3623 10.9219L20.1055 11.0811C19.9711 11.1729 19.8587 11.2925 19.7744 11.4365C19.6221 11.6926 19.5803 11.9978 19.6582 12.2842C19.7362 12.5706 19.9276 12.8151 20.2178 12.9795L20.3848 13.084C20.889 13.4296 21.2532 13.9397 21.4121 14.5234C21.5912 15.182 21.4947 15.8835 21.1396 16.4805L20.4805 17.5566L20.3809 17.709C19.6059 18.8007 18.1014 19.1344 16.9531 18.4854L16.8164 18.416C16.6745 18.3539 16.5212 18.3202 16.3818 18.3164C16.0785 18.315 15.7867 18.4324 15.5723 18.6426C15.358 18.8527 15.2385 19.138 15.2393 19.4697L15.2314 19.6416C15.1203 20.9704 13.9842 22 12.6162 22H11.3809C9.93217 21.9999 8.75746 20.8493 8.75879 19.4756L8.75098 19.3281C8.73372 19.1827 8.68488 19.0414 8.60254 18.9053C8.45317 18.6497 8.20541 18.4629 7.91504 18.3867C7.62462 18.3107 7.31512 18.3518 7.01562 18.5215L6.83789 18.6084C6.27498 18.8564 5.6399 18.9019 5.04492 18.7363C4.37363 18.5494 3.8059 18.1082 3.47461 17.5225L2.83691 16.4443L2.75195 16.2842C2.17172 15.0839 2.62668 13.641 3.78125 12.9873L3.88672 12.9229C4.19507 12.7137 4.37988 12.3687 4.37988 12C4.37988 11.599 4.1613 11.2286 3.7793 11.0117L3.62402 10.9141C2.5098 10.1547 2.17002 8.68025 2.86035 7.50684L3.50879 6.46191C4.23089 5.23402 5.8317 4.81041 7.0625 5.50195L7.19531 5.57129C7.33114 5.63237 7.47903 5.66453 7.62109 5.66602C8.2474 5.66604 8.758 5.17359 8.76758 4.54199L8.77539 4.34766C8.82671 3.74706 9.09346 3.18298 9.52832 2.75488C10.0189 2.27192 10.6854 2.00005 11.3809 2H12.6162ZM11.3809 3.44727C11.0786 3.44732 10.7885 3.56551 10.5752 3.77539C10.3861 3.96152 10.2703 4.20734 10.25 4.43652L10.2373 4.74121C10.1338 6.07058 8.9997 7.11443 7.61328 7.11426C7.2559 7.11062 6.90323 7.03279 6.54395 6.87012L6.35156 6.77051C5.80352 6.46312 5.10453 6.64826 4.78027 7.19922L4.13086 8.24414C3.83335 8.75001 3.98272 9.39439 4.44336 9.70898L4.7041 9.87109C5.42203 10.3468 5.85742 11.143 5.85742 12C5.85742 12.8446 5.43408 13.6343 4.70215 14.1299L4.54688 14.2256C4.03403 14.5163 3.83586 15.1443 4.07422 15.6387L4.12988 15.7451L4.75977 16.8086C4.9075 17.0696 5.15522 17.2621 5.44824 17.3438C5.70813 17.4161 5.98575 17.3963 6.20215 17.3018L6.31055 17.25C6.9107 16.9069 7.62662 16.8123 8.29785 16.9883C8.96882 17.1643 9.53986 17.5961 9.87891 18.1768C10.0613 18.4778 10.177 18.813 10.2217 19.1982L10.2422 19.5518C10.3044 20.1141 10.7904 20.5526 11.3809 20.5527H12.6162C13.2135 20.5527 13.7102 20.102 13.7568 19.5508L13.7617 19.4424C13.7584 18.7588 14.0349 18.1016 14.5283 17.6182C15.0217 17.135 15.6915 16.8646 16.4053 16.8682C16.7556 16.8773 17.1007 16.955 17.4531 17.1104L17.7686 17.2686C18.2645 17.4818 18.8532 17.3254 19.1514 16.9062L19.2236 16.7959L19.8682 15.7432C20.0202 15.4873 20.0621 15.1826 19.9844 14.8965C19.9153 14.6426 19.7565 14.4206 19.5645 14.2881L19.292 14.1191C18.7716 13.7744 18.3934 13.2559 18.2305 12.6572C18.0512 11.9985 18.1476 11.2973 18.4951 10.7129C18.6854 10.3874 18.9462 10.107 19.2871 9.875L19.4482 9.77637C19.9602 9.48292 20.1575 8.85458 19.9209 8.3584L19.8506 8.22559L19.8379 8.19727L19.2529 7.20215C18.9763 6.73182 18.4005 6.52888 17.9121 6.68945L17.8018 6.73242L17.6982 6.78418C17.1001 7.1294 16.3858 7.22758 15.7139 7.05664C15.042 6.88563 14.4673 6.45936 14.1182 5.87598C13.9358 5.57488 13.8201 5.23975 13.7754 4.85449L13.7627 4.60254C13.7716 4.29929 13.6543 4.00562 13.4385 3.78809C13.2226 3.57055 12.9262 3.44714 12.6162 3.44727H11.3809ZM12.0039 8.73145C13.8458 8.7318 15.3396 10.1954 15.3398 12C15.3396 13.8046 13.8458 15.2672 12.0039 15.2676C10.1617 15.2676 8.66818 13.8048 8.66797 12C8.66818 10.1952 10.1617 8.73145 12.0039 8.73145ZM12.0039 10.1787C10.9778 10.1787 10.1457 10.9948 10.1455 12C10.1457 13.0052 10.9778 13.8203 12.0039 13.8203C13.0297 13.82 13.8611 13.005 13.8613 12C13.8611 10.995 13.0297 10.1791 12.0039 10.1787Z" fill="#0962E8"/>
</svg>
