<svg width="34" height="34" viewBox="0 0 34 34" fill="none" xmlns="http://www.w3.org/2000/svg">
<path d="M16.8 8.80005C19.0092 8.80005 20.8 7.00917 20.8 4.80005C20.8 2.59091 19.0092 0.800049 16.8 0.800049C14.5909 0.800049 12.8 2.59091 12.8 4.80005C12.8 7.00917 14.5909 8.80005 16.8 8.80005Z" stroke="#0962E8" stroke-linecap="round" stroke-linejoin="round"/>
<path d="M19.2 13.6H14.4C13.657 13.6 13.2856 13.6 12.9727 13.6308C9.93403 13.9301 7.53003 16.3341 7.23075 19.3727C7.19995 19.6856 7.19995 20.057 7.19995 20.8H26.4C26.4 20.057 26.4 19.6856 26.3692 19.3727C26.0699 16.3341 23.6659 13.9301 20.6272 13.6308C20.3144 13.6 19.9429 13.6 19.2 13.6Z" stroke="#0962E8" stroke-linecap="round" stroke-linejoin="round"/>
<path d="M30.4 19.0273C31.9214 20.0067 32.8 21.1625 32.8 22.4004C32.8 25.935 25.6366 28.8004 16.8 28.8004C7.96349 28.8004 0.800049 25.935 0.800049 22.4004C0.800049 21.1625 1.67866 20.0067 3.20005 19.0273" stroke="#0962E8" stroke-linecap="round" stroke-linejoin="round"/>
<path d="M12.8 24.8L16.8 28.8L12.8 32.8001" stroke="#0962E8" stroke-linecap="round" stroke-linejoin="round"/>
</svg>
