<svg width="35" height="35" viewBox="0 0 35 35" fill="none" xmlns="http://www.w3.org/2000/svg">
<path d="M8.92792 14.643C12.0838 14.643 14.6422 12.0847 14.6422 8.92879C14.6422 5.77285 12.0838 3.21448 8.92792 3.21448C5.77199 3.21448 3.21362 5.77285 3.21362 8.92879C3.21362 12.0847 5.77199 14.643 8.92792 14.643Z" stroke="#0962E8" stroke-linecap="round" stroke-linejoin="round"/>
<path d="M26.0707 31.7858C29.2266 31.7858 31.7849 29.2273 31.7849 26.0715C31.7849 22.9156 29.2266 20.3572 26.0707 20.3572C22.9147 20.3572 20.3563 22.9156 20.3563 26.0715C20.3563 29.2273 22.9147 31.7858 26.0707 31.7858Z" stroke="#0962E8" stroke-linecap="round" stroke-linejoin="round"/>
<path d="M17.4999 34.1667C8.29519 34.1667 0.833252 26.7048 0.833252 17.5L6.38877 20.2778" stroke="#0962E8" stroke-linecap="round" stroke-linejoin="round"/>
<path d="M17.4999 0.833374C26.7046 0.833374 34.1665 8.29526 34.1665 17.5L28.611 14.7223" stroke="#0962E8" stroke-linecap="round" stroke-linejoin="round"/>
</svg>
